<?xml version="1.0" encoding="utf-8"?>
<!-- Generator: Adobe Illustrator 27.5.0, SVG Export Plug-In . SVG Version: 6.00 Build 0)  -->
<svg version="1.1" xmlns="http://www.w3.org/2000/svg" xmlns:xlink="http://www.w3.org/1999/xlink" x="0px" y="0px"
	 viewBox="0 0 500 500" style="enable-background:new 0 0 500 500;" xml:space="preserve">
<g id="BACKGROUND">
	<rect style="fill:#FFFFFF;" width="500" height="500"/>
	<g>
		<path style="fill:#FFF5DE;" d="M428.768,105.218H71.232c-5.954,0-10.78-4.826-10.78-10.78v-3.713c0-5.954,4.826-10.78,10.78-10.78
			h357.536c5.954,0,10.78,4.826,10.78,10.78v3.713C439.548,100.391,434.722,105.218,428.768,105.218z"/>
		<path style="fill:#FFF5DE;" d="M428.768,171.892H71.232c-5.954,0-10.78-4.826-10.78-10.78V157.4c0-5.954,4.826-10.78,10.78-10.78
			h357.536c5.954,0,10.78,4.827,10.78,10.78v3.713C439.548,167.066,434.722,171.892,428.768,171.892z"/>
		<path style="fill:#FFF5DE;" d="M428.768,238.567H71.232c-5.954,0-10.78-4.826-10.78-10.78v-3.713c0-5.954,4.826-10.78,10.78-10.78
			h357.536c5.954,0,10.78,4.826,10.78,10.78v3.713C439.548,233.74,434.722,238.567,428.768,238.567z"/>
		<path style="fill:#FFF5DE;" d="M428.768,305.241H71.232c-5.954,0-10.78-4.827-10.78-10.78v-3.712c0-5.954,4.826-10.78,10.78-10.78
			h357.536c5.954,0,10.78,4.827,10.78,10.78v3.712C439.548,300.415,434.722,305.241,428.768,305.241z"/>
		<path style="fill:#FFF5DE;" d="M428.768,371.916H71.232c-5.954,0-10.78-4.827-10.78-10.78v-3.712c0-5.954,4.826-10.78,10.78-10.78
			h357.536c5.954,0,10.78,4.827,10.78,10.78v3.712C439.548,367.089,434.722,371.916,428.768,371.916z"/>
	</g>
	<g>
		
			<text transform="matrix(1 0 0 1 211.9029 110.7955)" style="fill:#4C122F; font-family:'FredokaOne-Regular'; font-size:29.0272px;">HTML</text>
		<g>
			<path style="fill:#FFB603;" d="M62.344,41.829h36.279c9.822,0,17.858,8.036,17.858,17.858v15.624c0,0.615,0.244,1.205,0.68,1.641
				l11.291,11.292c1.462,1.462,0.426,3.961-1.64,3.961h-25.794c-0.025,0-0.049,0.004-0.075,0.004h-38.6
				c-9.822,0-17.858-8.036-17.858-17.858V59.688C44.486,49.865,52.522,41.829,62.344,41.829z"/>
			
				<text transform="matrix(1 0 0 1 58.4945 77.2338)" style="fill:#FFFFFF; font-family:'FredokaOne-Regular'; font-size:25.832px;">&lt;/&gt;</text>
		</g>
		
			<text transform="matrix(1 0 0 1 59.5992 312.648)" style="fill:#4C122F; font-family:'FredokaOne-Regular'; font-size:29.0272px;">PHP</text>
		
			<text transform="matrix(1 0 0 1 378.1735 155.6887)" style="fill:#4C122F; font-family:'FredokaOne-Regular'; font-size:29.0272px;">CSS</text>
		
			<text transform="matrix(1 0 0 1 392.8053 253.123)" style="fill:#4C122F; font-family:'FredokaOne-Regular'; font-size:29.0272px;">JAVA</text>
		<g>
			<path style="fill:#B4EEFA;" d="M414.66,298.086l-26.474-12.229c-0.141-0.065-0.29-0.105-0.439-0.121
				c-0.362-0.038-0.732,0.067-1.024,0.303c-0.413,0.335-0.6,0.875-0.483,1.394l6.459,28.438c0.125,0.549,0.566,0.969,1.121,1.066
				c0.032,0.005,0.063,0.01,0.095,0.013c0.522,0.055,1.035-0.189,1.321-0.636l5.085-7.947l5.699,7.037
				c0.233,0.288,0.57,0.471,0.939,0.51c0.368,0.039,0.736-0.07,1.024-0.303l3.246-2.629c0.599-0.485,0.691-1.364,0.206-1.963
				l-5.661-6.99l8.801-3.372c0.524-0.201,0.877-0.696,0.895-1.257C415.489,298.838,415.17,298.321,414.66,298.086z"/>
			<polygon style="fill:#FFB603;" points="414.075,299.352 387.601,287.123 394.06,315.561 400.188,305.984 407.105,314.525 
				410.35,311.896 403.48,303.412 			"/>
		</g>
		<g>
			<path style="fill:#6D007D;" d="M390.109,45.901c-8.056,8.056-8.056,21.117,0,29.173c8.056,8.056,21.117,8.056,29.173,0
				c8.056-8.056,8.056-21.117,0-29.173C411.227,37.845,398.165,37.845,390.109,45.901z M414.413,70.204
				c-5.366,5.366-14.067,5.366-19.433,0c-5.366-5.366-5.366-14.067,0-19.433c5.366-5.366,14.067-5.366,19.433,0
				C419.779,56.138,419.779,64.838,414.413,70.204z"/>
			<g>
				
					<rect x="423.175" y="66.044" transform="matrix(0.7071 -0.7071 0.7071 0.7071 66.1445 327.1039)" style="fill:#6D007D;" width="9.484" height="35.33"/>
				
					<rect x="430.85" y="84.573" transform="matrix(0.7071 -0.7071 0.7071 0.7071 62.9656 334.7787)" style="fill:#71D2E6;" width="9.484" height="13.622"/>
			</g>
		</g>
		<path style="fill:#E7C8EB;" d="M362.78,191.327h-4.526l3.2-3.2c0.327-0.327,0.327-0.862,0-1.19c-0.327-0.327-0.862-0.327-1.19,0
			l-3.2,3.2v-4.526c0-0.463-0.378-0.841-0.841-0.841c-0.463,0-0.841,0.379-0.841,0.841v4.526l-3.2-3.2
			c-0.327-0.327-0.862-0.327-1.19,0c-0.327,0.327-0.327,0.862,0,1.19l3.2,3.2h-4.526c-0.463,0-0.841,0.378-0.841,0.841
			s0.379,0.841,0.841,0.841h4.526l-3.2,3.2c-0.327,0.327-0.327,0.862,0,1.19c0.327,0.327,0.863,0.327,1.19,0l3.2-3.2v4.526
			c0,0.463,0.379,0.841,0.841,0.841c0.463,0,0.841-0.378,0.841-0.841v-4.526l3.2,3.2c0.327,0.327,0.862,0.327,1.19,0
			c0.327-0.327,0.327-0.862,0-1.19l-3.2-3.2h4.526c0.463,0,0.841-0.378,0.841-0.841S363.242,191.327,362.78,191.327z"/>
		<path style="fill:#E7C8EB;" d="M169.891,129.56h-4.526l3.2-3.2c0.327-0.327,0.327-0.862,0-1.189c-0.327-0.327-0.863-0.327-1.19,0
			l-3.2,3.2v-4.526c0-0.463-0.379-0.841-0.841-0.841s-0.841,0.379-0.841,0.841v4.526l-3.2-3.2c-0.327-0.327-0.862-0.327-1.19,0
			c-0.327,0.327-0.327,0.862,0,1.189l3.2,3.2h-4.526c-0.463,0-0.841,0.378-0.841,0.841c0,0.463,0.379,0.841,0.841,0.841h4.526
			l-3.2,3.2c-0.327,0.327-0.327,0.862,0,1.19c0.327,0.327,0.863,0.327,1.19,0l3.2-3.2v4.526c0,0.463,0.379,0.841,0.841,0.841
			s0.841-0.379,0.841-0.841v-4.526l3.2,3.2c0.327,0.327,0.862,0.327,1.19,0c0.327-0.327,0.327-0.862,0-1.19l-3.2-3.2h4.526
			c0.463,0,0.841-0.378,0.841-0.841C170.732,129.939,170.353,129.56,169.891,129.56z"/>
		<path style="fill:#E7C8EB;" d="M449.366,326.565h-4.526l3.2-3.2c0.327-0.327,0.327-0.862,0-1.19c-0.327-0.327-0.863-0.327-1.19,0
			l-3.2,3.2v-4.526c0-0.463-0.379-0.841-0.841-0.841c-0.463,0-0.841,0.378-0.841,0.841v4.526l-3.2-3.2
			c-0.327-0.327-0.862-0.327-1.19,0c-0.327,0.327-0.327,0.862,0,1.19l3.2,3.2h-4.526c-0.463,0-0.841,0.379-0.841,0.841
			c0,0.463,0.379,0.841,0.841,0.841h4.526l-3.2,3.2c-0.327,0.327-0.327,0.862,0,1.19c0.327,0.327,0.863,0.327,1.19,0l3.2-3.2v4.526
			c0,0.463,0.379,0.841,0.841,0.841c0.463,0,0.841-0.378,0.841-0.841v-4.526l3.2,3.2c0.327,0.327,0.862,0.327,1.19,0
			c0.327-0.327,0.327-0.862,0-1.19l-3.2-3.2h4.526c0.463,0,0.841-0.379,0.841-0.841
			C450.207,326.944,449.828,326.565,449.366,326.565z"/>
		<path style="fill:#E7C8EB;" d="M358.16,45.266h-4.526l3.2-3.2c0.327-0.327,0.327-0.862,0-1.189c-0.327-0.327-0.863-0.327-1.19,0
			l-3.2,3.2v-4.526c0-0.463-0.379-0.841-0.841-0.841c-0.463,0-0.841,0.378-0.841,0.841v4.526l-3.2-3.2
			c-0.327-0.327-0.862-0.327-1.19,0c-0.327,0.327-0.327,0.862,0,1.189l3.2,3.2h-4.526c-0.463,0-0.841,0.378-0.841,0.841
			c0,0.463,0.379,0.841,0.841,0.841h4.526l-3.2,3.2c-0.327,0.327-0.327,0.862,0,1.19c0.327,0.327,0.863,0.327,1.19,0l3.2-3.2v4.526
			c0,0.463,0.379,0.841,0.841,0.841c0.463,0,0.841-0.378,0.841-0.841v-4.526l3.2,3.2c0.327,0.327,0.862,0.327,1.19,0
			c0.327-0.327,0.327-0.862,0-1.19l-3.2-3.2h4.526c0.463,0,0.841-0.378,0.841-0.841C359.001,45.645,358.622,45.266,358.16,45.266z"
			/>
		<path style="fill:#E7C8EB;" d="M120.549,397.584h-4.526l3.2-3.2c0.327-0.327,0.327-0.862,0-1.19c-0.327-0.327-0.863-0.327-1.19,0
			l-3.2,3.2v-4.526c0-0.463-0.379-0.841-0.841-0.841s-0.841,0.379-0.841,0.841v4.526l-3.2-3.2c-0.327-0.327-0.862-0.327-1.19,0
			c-0.327,0.327-0.327,0.863,0,1.19l3.2,3.2h-4.526c-0.463,0-0.841,0.379-0.841,0.841c0,0.463,0.378,0.841,0.841,0.841h4.526
			l-3.2,3.2c-0.327,0.327-0.327,0.862,0,1.189c0.327,0.327,0.862,0.327,1.19,0l3.2-3.2v4.526c0,0.463,0.379,0.841,0.841,0.841
			s0.841-0.379,0.841-0.841v-4.526l3.2,3.2c0.327,0.327,0.863,0.327,1.19,0c0.327-0.327,0.327-0.862,0-1.189l-3.2-3.2h4.526
			c0.463,0,0.841-0.379,0.841-0.841C121.39,397.962,121.012,397.584,120.549,397.584z"/>
		<path style="fill:#E7C8EB;" d="M68.235,258.586h-4.526l3.2-3.2c0.327-0.327,0.327-0.862,0-1.19c-0.327-0.327-0.863-0.327-1.19,0
			l-3.2,3.2v-4.526c0-0.463-0.379-0.841-0.841-0.841c-0.463,0-0.841,0.378-0.841,0.841v4.526l-3.2-3.2
			c-0.327-0.327-0.862-0.327-1.19,0c-0.327,0.327-0.327,0.862,0,1.19l3.2,3.2h-4.526c-0.463,0-0.841,0.379-0.841,0.841
			c0,0.463,0.379,0.841,0.841,0.841h4.526l-3.2,3.2c-0.327,0.327-0.327,0.862,0,1.19c0.327,0.327,0.862,0.327,1.19,0l3.2-3.2v4.526
			c0,0.463,0.379,0.841,0.841,0.841c0.463,0,0.841-0.379,0.841-0.841v-4.526l3.2,3.2c0.327,0.327,0.863,0.327,1.19,0
			c0.327-0.327,0.327-0.862,0-1.19l-3.2-3.2h4.526c0.463,0,0.841-0.379,0.841-0.841C69.076,258.965,68.697,258.586,68.235,258.586z"
			/>
		<g>
			<path style="fill:#C067C9;" d="M77.184,198.383h-2.84c-0.192-0.562-0.422-1.106-0.686-1.63l2.102-2.102
				c0.898-0.898,0.898-2.369,0-3.267l-2.561-2.561c-0.899-0.899-2.369-0.899-3.267,0l-2.144,2.144
				c-0.484-0.236-0.986-0.439-1.502-0.613v-3.163c0-1.271-1.04-2.31-2.31-2.31h-3.621c-1.271,0-2.31,1.04-2.31,2.31v3.163
				c-0.487,0.164-0.961,0.355-1.42,0.574l-2.312-2.312c-0.898-0.899-2.369-0.899-3.267,0l-2.561,2.56
				c-0.898,0.899-0.898,2.369,0,3.267l2.23,2.23c-0.235,0.457-0.446,0.929-0.626,1.416h-3.236c-1.271,0-2.31,1.04-2.31,2.31v3.621
				c0,1.271,1.04,2.31,2.31,2.31h3.009c0.164,0.534,0.364,1.052,0.593,1.554l-2.178,2.178c-0.899,0.898-0.899,2.369,0,3.267
				l2.561,2.561c0.898,0.898,2.369,0.898,3.267,0l1.993-1.993c0.53,0.284,1.082,0.533,1.653,0.742v2.884
				c0,1.271,1.04,2.31,2.31,2.31h3.621c1.271,0,2.31-1.04,2.31-2.31v-2.685c0.611-0.19,1.203-0.425,1.772-0.7l1.96,1.961
				c0.899,0.898,2.369,0.898,3.267,0l2.561-2.561c0.898-0.898,0.898-2.369,0-3.267l-1.907-1.907
				c0.283-0.558,0.527-1.138,0.727-1.739h2.812c1.271,0,2.31-1.04,2.31-2.31v-3.621C79.495,199.423,78.455,198.383,77.184,198.383z
				 M62.018,208.565c-3.429,0-6.209-2.78-6.209-6.209c0-3.429,2.78-6.209,6.209-6.209c3.429,0,6.209,2.78,6.209,6.209
				C68.227,205.786,65.447,208.565,62.018,208.565z"/>
			<path style="fill:#C067C9;" d="M112.592,177.771l-3.348,0.232c-0.272-0.647-0.587-1.269-0.942-1.865l2.307-2.65
				c0.986-1.133,0.866-2.866-0.267-3.852l-3.228-2.809c-1.133-0.986-2.866-0.866-3.852,0.267l-2.352,2.702
				c-0.59-0.238-1.199-0.437-1.821-0.6l-0.258-3.728c-0.104-1.498-1.414-2.639-2.912-2.535l-4.269,0.296
				c-1.498,0.104-2.638,1.414-2.535,2.912l0.258,3.728c-0.56,0.234-1.104,0.496-1.627,0.792l-2.915-2.537
				c-1.133-0.986-2.866-0.866-3.852,0.267l-2.809,3.228c-0.986,1.132-0.866,2.866,0.267,3.851l2.811,2.446
				c-0.24,0.558-0.45,1.132-0.622,1.721l-3.815,0.264c-1.498,0.104-2.638,1.414-2.535,2.912l0.296,4.269
				c0.104,1.498,1.414,2.639,2.912,2.535l3.547-0.246c0.237,0.616,0.515,1.21,0.826,1.783l-2.39,2.746
				c-0.986,1.133-0.866,2.866,0.267,3.852l3.228,2.809c1.133,0.986,2.866,0.866,3.851-0.267l2.187-2.512
				c0.648,0.291,1.319,0.54,2.009,0.739l0.236,3.399c0.104,1.498,1.414,2.638,2.912,2.535l4.269-0.296
				c1.498-0.104,2.638-1.414,2.535-2.912l-0.219-3.164c0.705-0.274,1.383-0.599,2.031-0.97l2.471,2.151
				c1.133,0.986,2.866,0.866,3.851-0.267l2.809-3.227c0.986-1.133,0.866-2.866-0.267-3.852l-2.404-2.092
				c0.288-0.681,0.528-1.385,0.715-2.109l3.315-0.23c1.498-0.104,2.638-1.414,2.535-2.912l-0.296-4.268
				C115.401,178.808,114.09,177.667,112.592,177.771z M95.547,191.014c-4.042,0.28-7.546-2.769-7.826-6.811
				c-0.28-4.042,2.769-7.546,6.811-7.826s7.546,2.769,7.826,6.811C102.638,187.23,99.589,190.733,95.547,191.014z"/>
		</g>
		<circle style="fill:#FFB603;" cx="338.302" cy="123.175" r="3.5"/>
		<circle style="fill:#FFB603;" cx="450.526" cy="189.018" r="3.5"/>
		<circle style="fill:#FFB603;" cx="453.186" cy="397.189" r="3.5"/>
		<circle style="fill:#FFB603;" cx="40.345" cy="335.336" r="3.5"/>
		<circle style="fill:#FFB603;" cx="127.471" cy="254.861" r="3.5"/>
		<circle style="fill:#FFB603;" cx="58.967" cy="125.17" r="3.5"/>
		<circle style="fill:#FFB603;" cx="223.907" cy="46.2" r="3.5"/>
	</g>
</g>
<g id="OBJECTS">
	<path style="fill:#539FB0;" d="M120.598,449.56h15.962c5.487,0,9.976-4.489,9.976-9.976v0c0-5.487-4.489-9.976-9.976-9.976h-15.962
		c-5.487,0-9.976,4.489-9.976,9.976v0C110.622,445.071,115.111,449.56,120.598,449.56z"/>
	<g>
		<g>
			
				<rect x="56.75" y="409.741" transform="matrix(-1 -1.224647e-16 1.224647e-16 -1 146.0894 859.3016)" style="fill:#6D007D;" width="32.589" height="39.819"/>
			<path style="fill:#6D007D;" d="M43.781,425.473v10.266c0,4.218,3.451,7.67,7.67,7.67h9.268c4.218,0,7.67-3.451,7.67-7.67v-10.266
				c0-4.218-3.451-7.67-7.67-7.67h-9.268C47.232,417.803,43.781,421.254,43.781,425.473z M50.938,427.482
				c0-1.798,1.471-3.27,3.27-3.27h5.749c1.798,0,3.27,1.471,3.27,3.27v6.247c0,1.798-1.471,3.27-3.27,3.27h-5.749
				c-1.798,0-3.27-1.471-3.27-3.27V427.482z"/>
		</g>
		<g>
			<circle style="fill:#C067C9;" cx="72.934" cy="430.138" r="10.42"/>
			<g>
				<g>
					<path style="fill:#FFFFFF;" d="M66.949,428.309c-1.72,0-1.723,2.673,0,2.673C68.669,430.982,68.672,428.309,66.949,428.309z"/>
					<path style="fill:#FFFFFF;" d="M78.754,428.309c-1.72,0-1.723,2.673,0,2.673C80.474,430.982,80.477,428.309,78.754,428.309z"/>
				</g>
				<path style="fill:#FFFFFF;" d="M75.564,430.613c-0.133-0.314-0.561-0.224-0.717,0c-0.193,0.276-0.256,0.61-0.428,0.9
					c-0.428,0.721-1.155,0.866-1.939,0.668c-0.843-0.214-1.432-0.918-2.044-1.485c-0.137-0.127-0.321-0.059-0.385,0.102
					c-0.541,1.361,1.831,2.394,2.86,2.463c0.957,0.064,1.627-0.092,2.21-0.928C75.465,431.838,75.813,431.199,75.564,430.613z"/>
			</g>
		</g>
	</g>
	<g>
		<polygon style="fill:#C067C9;" points="332.819,440.087 167.181,440.087 163.181,425.455 336.819,425.455 		"/>
		<g>
			<g>
				<path style="fill:#BD7800;" d="M329.478,264.025c-0.261-1.764-1.05-0.028,0.439-2.026c0.404-0.542,0.806-1.083,1.205-1.625
					c4.44-6.04,8.354-12.154,7.507-19.937c-0.681-6.258-2.216-11.715-5.39-15.857c3.315-8.518-2.889-19.949-9.323-25.223
					c-1.06-0.868-2.36-1.427-3.407-2.252c-2.016-1.589-2.192-3.401-2.721-5.616c-0.738-3.093-1.428-5.886-2.934-8.705
					c-4.956-9.276-17.822-25.356-30.135-22.791c-5.432-9.376-18.584-14.123-28.474-13.263c-6.458,0.562-17.137,4.781-19.291,12.315
					c0.395-1.403-10.459-2.106-11.388-2.172c-6.588-0.472-11.487,0.597-17.559,3.622c-0.212,0.106-0.426,0.204-0.638,0.314
					c-5.875,3.05-11.849,10.216-12.701,16.731c-0.115,0.88,0.514,4.601,0.105,5.268c-0.478,0.781-3.655,0.37-5.139,0.575
					c-9.269,1.277-22.306,12.141-19.779,22.32c0.632,2.545,2.031,5.4,3.851,7.502c-1.334-1.541-8.042,6.16-8.661,7.099
					c-2.97,4.506-4.547,10.252-4.002,15.597c0.099,0.972,5.026,13.402,6.98,10.791c-7.469,9.983-2.408,32.714,11.124,29.046
					c-0.743,3.002-0.905,5.627,0.561,8.967c1.576,3.59,4.145,5.827,7.57,7.297c3.694,1.586,8.187,2.935,12.221,2.776
					c2.03-0.08,4.052-0.528,5.915-1.404c0.53-0.249,1.66-1.234,2.591-1.891c0.177,1.076,0.23,2.111,0.978,3.216
					c0.955,1.412,2.367,2.419,3.796,3.211c4.245,2.352,9.253,4.091,14.005,4.605c7.894,0.853,20.781-0.406,24.838-9.084
					c3.175,2.317,7.287,3.186,10.936,4.187c5.852,1.606,12.053,2.599,18.117,2.188c4.262-0.29,9.685-1.604,13.144-4.41
					c1.471-1.193,2.941-2.844,3.824-4.599c0.676-1.343,0.617-3.018,0.959-4.414c7.387,3.882,17.252,3.984,24.654,0.354
					c5.217-2.559,9.561-9.551,8.882-15.264C331.814,268.768,329.854,266.567,329.478,264.025z"/>
				<g>
					<path style="fill:#9C6300;" d="M198.893,192.797c-5.654-2.159-8.732-0.124-12.643,4.118c-3.746,4.062-4.164,9.478-2.542,14.632
						c0.329,1.046,1.889,0.618,1.642-0.453c-1.039-4.516-0.934-9.248,2.199-12.879c3.184-3.69,6.033-6.14,11.215-4.951
						C199.073,193.335,199.181,192.907,198.893,192.797z"/>
					<path style="fill:#9C6300;" d="M197.858,221.136c0.8-0.099,0.845-1.24,0-1.281c-4.66-0.228-7.561,5.779-8.136,9.578
						c-0.869,5.745,1.293,11.169,7.244,12.834c0.944,0.264,1.466-1.047,0.656-1.556c-4.044-2.541-6.28-4.793-5.943-9.84
						C191.904,227.514,193.868,221.629,197.858,221.136z"/>
					<path style="fill:#9C6300;" d="M183.796,246.197c-2.578-2.201-4.873-4.267-5.713-7.704c-0.954-3.898,0.145-7.498,1.243-11.231
						c0.163-0.553-0.64-0.742-0.844-0.233c-1.675,4.182-3.128,7.944-2.019,12.512c0.842,3.471,3.205,6.302,6.358,7.919
						C183.589,247.855,184.527,246.821,183.796,246.197z"/>
					<path style="fill:#9C6300;" d="M199.748,270.22c-3.158-0.489-6.329-1.775-8.57-4.125c-2.511-2.633-3.047-5.886-3.476-9.353
						c-0.075-0.605-1.027-0.628-0.969,0c0.331,3.591,0.541,7.322,2.889,10.245c2.445,3.045,5.999,4.886,9.899,4.906
						C200.449,271.897,200.72,270.371,199.748,270.22z"/>
					<path style="fill:#9C6300;" d="M223.659,261.687c-7.486-1.07-16.428-11.301-10.105-18.513c0.079-0.09-0.045-0.218-0.133-0.133
						c-1.922,1.869-3.087,2.378-3.336,5.111c-0.218,2.389,0.279,4.641,1.3,6.802c2.206,4.667,6.64,8.794,12.078,8.176
						C224.203,263.046,224.554,261.815,223.659,261.687z"/>
					<path style="fill:#9C6300;" d="M217.811,275.209c-3.432-0.391-7.027-1.005-9.499-3.582c-1.029-1.073-1.983-2.282-2.662-3.605
						c-0.243-0.473-1.923-5.166-1.264-5.601c0.298-0.196,0.251-0.649-0.099-0.757c-0.081-0.025-0.163-0.05-0.244-0.075
						c-0.279-0.086-0.576,0.102-0.656,0.372c-1.213,4.095,0.529,7.753,3.174,10.833c2.851,3.32,6.961,4.448,11.25,4.056
						C218.874,276.753,218.856,275.328,217.811,275.209z"/>
					<path style="fill:#9C6300;" d="M289.15,248.659c-0.142-0.219-0.477-0.026-0.351,0.205c1.797,3.297,1.353,8.863-0.175,12.203
						c-1.845,4.034-5.408,5.304-9.499,5.904c-0.934,0.137-0.582,1.431,0.206,1.519C290.172,269.703,294.337,256.637,289.15,248.659z
						"/>
					<path style="fill:#9C6300;" d="M318.338,263.293c-0.069-0.087-0.207-0.029-0.235,0.062c-0.532,1.745,0.34,3.003,0.148,4.791
						c-0.288,2.696-2.025,5.111-3.925,6.932c-2.798,2.68-6.365,4.253-9.851,5.815c-0.962,0.431-0.271,1.935,0.704,1.671
						C312.198,280.663,325.127,271.868,318.338,263.293z"/>
					<path style="fill:#9C6300;" d="M325.141,235.587c-0.777,4.9-1.695,10.985-5.196,14.773c-3.182,3.442-10.323,5.356-14.617,2.956
						c-0.112-0.063-0.247,0.096-0.142,0.184c3.943,3.309,10.278,2.635,14.447-0.254c5.149-3.569,7.126-11.586,7.027-17.453
						C326.646,234.957,325.282,234.695,325.141,235.587z"/>
					<path style="fill:#9C6300;" d="M311.175,213.259c-0.781-0.77-1.81,0.355-1.171,1.171c2.66,3.396,5.055,6.218,3.983,10.804
						c-1.056,4.518-3.597,7.525-7.55,9.949c-0.351,0.215-0.036,0.759,0.323,0.553c4.919-2.822,7.971-5.414,9.225-11.123
						C317.088,219.596,314.686,216.717,311.175,213.259z"/>
				</g>
			</g>
			<g>
				<path style="fill:#FFB273;" d="M265.881,272.496V250.11h-15.584h-1.007h-15.584v22.386
					c-2.255,1.126-41.549,10.064-41.549,10.064l14.266,137.435l85.208,0.334l16.21-137.77
					C307.842,282.56,268.581,273.844,265.881,272.496z"/>
				<path style="fill:#FF7142;" d="M249.772,265.747c-7.404,0-15.892-6.636-16.12-6.771v-5.882h15.615h1.009h15.615v5.882
					C265.711,259.252,257.176,265.747,249.772,265.747z"/>
				<path style="fill:#4C122F;" d="M307.932,282.145c-0.136-0.029-9.676-2.149-19.609-4.444c0,0-24.041,15.232-38.839,15.232
					c-14.798,0-37.807-15.324-37.807-15.324c-9.905,2.326-19.479,4.505-19.613,4.536l-0.365,0.083l14.336,138.19l85.975,0.336
					l16.25-138.152l0.04-0.376L307.932,282.145z"/>
			</g>
			<g>
				<path style="fill:#FFB273;" d="M279.015,174.24c-8.316-8.042-20.855-11.474-28.427-11.474h-0.131h-0.914h-0.132
					c-7.571,0-20.11,3.432-28.426,11.474c-7.365,7.122-8.111,18.41-6.2,30.089c3.619,22.12,2.736,31.182,6.275,38.731
					c2.992,6.384,14.189,17.052,28.484,17.847h0.914c14.295-0.795,25.491-11.463,28.484-17.847
					c3.539-7.549,2.656-16.611,6.274-38.731C287.126,192.65,286.381,181.362,279.015,174.24z"/>
				<g>
					<g>
						<g>
							<g>
								<path style="fill:#BD7800;" d="M270.253,201.415c-2.762-1.122-5.725-1.662-8.645-1.7c-1.495-0.02-4.908,0.321-4.949,2.721
									c-0.015,0.894,0.479,1.734,1.133,2.237c1.982,1.525,4.772,0.826,6.991,0.894c1.857,0.057,3.675,0.297,5.479,0.822
									c1.543,0.448,2.806,2.062,4.48,1.928c0.646-0.052,1.301-0.466,1.526-1.157c0.266-0.816,0-1.59-0.551-2.293
									C274.387,203.165,271.392,201.878,270.253,201.415z"/>
								<path style="fill:#4C122F;" d="M271.403,211.365c-0.074-0.43-0.643-0.563-0.943-0.286c-0.744,0.691-1.165,1.384-2.225,1.618
									c-0.039,0.008-0.084,0.016-0.125,0.024c-0.417-0.384-0.914-0.692-1.493-0.867c-2.054-0.622-4.223,0.538-4.846,2.592
									c-0.622,2.054,0.538,4.224,2.592,4.846c2.054,0.622,4.224-0.538,4.846-2.592c0.217-0.716,0.205-1.443,0.026-2.117
									C270.523,213.999,271.617,212.601,271.403,211.365z"/>
							</g>
							<g>
								<path style="fill:#BD7800;" d="M224.281,204.867c-0.55,0.703-0.817,1.478-0.551,2.293c0.225,0.69,0.88,1.105,1.526,1.157
									c1.674,0.134,2.937-1.479,4.48-1.928c1.804-0.525,3.623-0.765,5.48-0.822c2.219-0.068,5.009,0.63,6.991-0.894
									c0.654-0.503,1.148-1.343,1.133-2.237c-0.041-2.399-3.454-2.74-4.949-2.721c-2.92,0.038-5.883,0.578-8.645,1.7
									C228.608,201.878,225.613,203.165,224.281,204.867z"/>
								<path style="fill:#4C122F;" d="M228.597,211.365c0.074-0.43,0.643-0.563,0.943-0.286c0.744,0.691,1.165,1.384,2.225,1.618
									c0.039,0.008,0.084,0.016,0.125,0.024c0.417-0.384,0.914-0.692,1.493-0.867c2.054-0.622,4.223,0.538,4.846,2.592
									c0.622,2.054-0.538,4.224-2.592,4.846c-2.054,0.622-4.224-0.538-4.846-2.592c-0.217-0.716-0.205-1.443-0.026-2.117
									C229.477,213.999,228.383,212.601,228.597,211.365z"/>
							</g>
						</g>
						<path style="fill:#FF4A6B;" d="M261.59,237.272c-4.125,2.239-6.861,6.108-11.994,6.107c-4.579,0-7.855-2.827-11.673-4.851
							c-0.591-0.313-1.35,0.339-0.957,0.958c6.157,9.696,19.988,7.946,26.009-0.829C263.577,237.779,262.425,236.819,261.59,237.272
							z"/>
						<path style="fill:#FF7142;" d="M254.551,228.512c-0.333,0.043-0.61,0.371-0.405,0.705c0.607,0.993,1.73,1.45,1.599,2.82
							c-0.133,1.401-1.402,1.713-2.562,1.826c-0.008,0.001-0.012,0.007-0.02,0.008c-0.116-0.011-0.233,0.001-0.321,0.065
							c-0.848,0.609-1.025,1.68-2.286,1.77c-1.018,0.073-1.578-0.618-2.294-1.152c-0.061-0.117-0.162-0.23-0.329-0.244
							c-3.478-0.279-3.859-2.324-2.979-4.435c0.624-1.496,1.714-3.394,1.995-4.572c0.879-3.677,1.027-7.919,0.581-11.679
							c-0.018-0.149-0.251-0.216-0.288-0.039c-0.727,3.533-0.579,8.111-1.582,11.552c-0.673,2.31-2.428,3.511-2.827,5.82
							c-0.526,3.044,1.808,5.044,4.588,4.538c0.454,1.237,2.223,1.871,3.429,1.75c1.034-0.104,2.552-0.978,2.845-2.09
							c1.438,0.284,3.048-1.049,3.441-2.379C257.588,231.255,256.517,228.259,254.551,228.512z"/>
					</g>
					<g>
						<g>
							<path style="fill:#FFB273;" d="M198.608,213.849c0.597-1.669,1.504-3.291,2.931-4.343c0.973-0.716,2.139-1.124,3.327-1.354
								c0.067-0.013,0.134-0.032,0.201-0.045c0.816-0.144,1.646-0.188,2.474-0.158c1.802,0.067,3.592,0.525,5.194,1.335
								c0.759,0.383,1.469,0.851,2.125,1.383c0.781,0.634,1.48,1.362,2.048,2.205l1.416,15.043
								c-0.773,1.949-2.337,3.538-4.197,4.505c-1.86,0.968-3.999,1.338-6.093,1.239c-1.229-0.058-2.47-0.281-3.563-0.845
								c-0.928-0.48-1.719-1.192-2.425-1.961C197.935,226.376,196.559,219.571,198.608,213.849z"/>
							<path style="fill:#FF7142;" d="M201.015,218.807c0.115,3.098,1.432,7.505,4.757,9.72c1.106,0.734,2.339,1.128,3.467,1.128
								c0.365,0,0.718-0.042,1.053-0.127c1.059-0.266,1.91-0.951,2.461-1.98c0.109-0.203-0.007-0.401-0.237-0.797
								c-0.324-0.559-0.868-1.493-0.505-2.163c0.357-0.659,1.081-0.853,1.562-0.984c0.351-0.093,0.627-0.168,0.666-0.441
								c0.364-2.561-0.496-6.215-1.086-7.351c-1.151-2.472-4.421-4.035-7.379-3.608C202.749,212.665,200.88,215.254,201.015,218.807
								z M206.751,218.577c-1.032,0.949-2.098,1.928-2.751,3.375c-0.176,0.393-0.293,0.805-0.35,1.227
								c-0.505-1.15-0.844-2.389-0.98-3.589c-0.213-1.911,0.154-3.532,1.034-4.565c0.707-0.831,1.734-1.288,3.051-1.354
								c0.956-0.037,1.913,0.139,2.831,0.562C209.304,216.233,208.063,217.371,206.751,218.577z M206.52,226.918
								c-0.113-0.142-1.11-1.419-1.249-2.455c-0.244-1.806,0.629-2.659,1.734-3.741l0.341-0.335c0.27-0.27,0.551-0.535,0.831-0.801
								c0.679-0.64,1.378-1.304,1.954-2.042c0.329-0.422,0.964-1.358,0.981-2.317c0.431,0.415,0.833,0.953,0.951,1.371
								c0.224,0.812,0.929,3.567,0.829,5.716c-0.805,0.237-2.104,0.91-2.354,2.117c-0.268,1.276,0.324,2.425,0.546,2.855
								c0.011,0.022,0.021,0.043,0.03,0.061c-0.118,0.194-0.58,0.531-1.31,0.699C209.194,228.182,207.663,228.351,206.52,226.918z"
								/>
						</g>
						<g>
							<path style="fill:#FFB273;" d="M301.392,213.849c-0.598-1.669-1.504-3.291-2.931-4.343c-0.973-0.716-2.139-1.124-3.327-1.354
								c-0.067-0.013-0.133-0.032-0.201-0.045c-0.815-0.144-1.646-0.188-2.474-0.158c-1.801,0.067-3.592,0.525-5.194,1.335
								c-0.759,0.383-1.47,0.851-2.125,1.383c-0.78,0.634-1.48,1.362-2.047,2.205l-1.416,15.043
								c0.773,1.949,2.337,3.538,4.197,4.505c1.86,0.968,3.999,1.338,6.093,1.239c1.228-0.058,2.47-0.281,3.563-0.845
								c0.928-0.48,1.719-1.192,2.425-1.961C302.065,226.376,303.441,219.571,301.392,213.849z"/>
							<path style="fill:#FF7142;" d="M294.226,212.206c-2.957-0.427-6.228,1.135-7.379,3.608c-0.589,1.136-1.449,4.79-1.086,7.351
								c0.039,0.274,0.315,0.348,0.666,0.441c0.48,0.131,1.205,0.325,1.562,0.984c0.364,0.67-0.181,1.603-0.504,2.163
								c-0.231,0.396-0.346,0.594-0.237,0.797c0.551,1.029,1.401,1.714,2.461,1.98c0.335,0.085,0.688,0.127,1.053,0.127
								c1.127,0,2.361-0.394,3.466-1.128c3.325-2.215,4.642-6.622,4.757-9.72C299.12,215.254,297.251,212.665,294.226,212.206z
								 M290.413,214.234c0.919-0.422,1.876-0.598,2.831-0.562c1.316,0.066,2.344,0.522,3.051,1.354
								c0.879,1.034,1.247,2.654,1.034,4.565c-0.135,1.199-0.474,2.439-0.979,3.589c-0.056-0.422-0.174-0.834-0.35-1.227
								c-0.653-1.447-1.719-2.426-2.751-3.375C291.937,217.371,290.697,216.233,290.413,214.234z M290.194,228.047
								c-0.729-0.168-1.192-0.505-1.31-0.699c0.008-0.018,0.019-0.039,0.03-0.061c0.222-0.431,0.814-1.58,0.546-2.855
								c-0.25-1.207-1.549-1.88-2.354-2.117c-0.1-2.15,0.605-4.905,0.829-5.716c0.118-0.418,0.52-0.955,0.951-1.371
								c0.018,0.96,0.653,1.895,0.982,2.317c0.576,0.738,1.275,1.402,1.954,2.042c0.281,0.265,0.561,0.531,0.831,0.801l0.342,0.335
								c1.105,1.081,1.978,1.935,1.734,3.741c-0.139,1.036-1.136,2.313-1.249,2.455
								C292.337,228.351,290.806,228.182,290.194,228.047z"/>
						</g>
					</g>
					<g>
						<path style="fill:#BD7800;" d="M296.932,186.821c-1.01-9.843-7.634-17.178-15.557-22.386
							c-9.139-6.008-17.625-8.405-28.567-8.231c-4.033,0.064-17.943,1.341-16.246,7.781c-2.249-1.546-5.246-1.174-8.62,0.087
							c-5.474,2.047-8.648,5.667-11.54,10.544c-3.379,5.698-5.393,12.61-4.843,19.257c0.348,4.206,1.601,10.179,5.542,12.509
							c0.766,0.452,1.63-0.139,1.681-0.965c0.388-6.265,1.516-10.794,6.163-15.401c2.752-2.728,5.979-4.928,8.538-7.865
							c3.667-4.207,5.085-8.214,4.754-13.286c0.06,0.004,0.119,0.014,0.179,0.009c1.715,6.427,5.551,13.434,11.156,15.725
							c2.893,1.183,7.13,1.247,9.312-1.463c0.93,1.44,2.109,2.767,3.143,3.966c2.315,2.686,5.424,5.205,9.144,5.295
							c1.366,0.033,3.448-0.964,4.874-2.316c1.54,2.463,4.172,4.569,5.646,6.743c1.413,2.085,2.481,4.502,3.369,6.873
							c0.737,1.966,0.663,3.748,2.238,5.088c0.273,0.232,0.683,0.425,1.049,0.277C296.093,205.941,297.658,193.89,296.932,186.821z"
							/>
						<g>
							<path style="fill:#9C6300;" d="M240.688,167.578c-0.582-0.719-1.163-1.428-1.567-2.266c-0.446-0.923-0.221-1.599-0.234-2.569
								c-0.01-0.734-1.215-0.963-1.335-0.181c-0.197,1.278-0.458,2.114,0.07,3.381c0.474,1.138,1.266,1.979,2.234,2.714
								C240.525,169.167,241.137,168.133,240.688,167.578z"/>
							<path style="fill:#9C6300;" d="M232.287,170.392c-0.046-0.409-0.681-0.584-0.783-0.106
								c-1.688,7.899-8.411,10.607-13.703,15.91c-4.381,4.39-6.134,8.901-5.934,15.123c0.025,0.791,1.282,1.042,1.443,0.195
								c0.878-4.629,1.06-8.405,4.221-12.142c2.272-2.686,5.05-4.84,7.74-7.083C229.152,179.053,232.911,175.895,232.287,170.392z"
								/>
							<path style="fill:#9C6300;" d="M259.822,174.051c-2.585,0.022-4.624,1.524-7.37,0.817c-2.637-0.679-4.565-2.416-5.562-4.911
								c-0.139-0.348-0.608-0.376-0.738,0c-0.836,2.411,1.961,4.874,3.866,5.886c3.515,1.867,6.812,1.23,10.14-0.555
								C260.743,174.975,260.468,174.046,259.822,174.051z"/>
							<path style="fill:#9C6300;" d="M278.422,179.762c-1.323,0.97-4.286,0.501-5.675,0.051c-2.281-0.738-4.699-2.405-5.105-4.904
								c-0.093-0.576-1.102-0.447-1.028,0.139c0.388,3.067,2.452,5.286,5.299,6.432c2.042,0.822,6.189,1.684,7.471-0.757
								C279.682,180.156,279.03,179.316,278.422,179.762z"/>
							<path style="fill:#9C6300;" d="M283.415,170.014c-3.17-5.31-7.029-8.023-13.053-9.439
								c-5.856-1.377-10.015,0.192-15.349,2.571c-0.36,0.16-0.047,0.678,0.308,0.526c10.455-4.461,19.884-1.348,26.917,7.251
								C282.783,171.59,283.844,170.732,283.415,170.014z"/>
							<path style="fill:#9C6300;" d="M294.488,196.952c-1.543-0.767-2.996-1.722-4.364-2.768c-2.056-1.573-2.719-3.593-3.677-5.932
								c-0.174-0.424-0.853-0.268-0.708,0.195c0.724,2.309,1.023,4.613,2.807,6.366c1.589,1.561,3.229,2.825,5.31,3.639
								C294.718,198.789,295.316,197.365,294.488,196.952z"/>
							<path style="fill:#9C6300;" d="M302.823,184.46c-3.746-4.694-7.637-6.039-13.33-7.023c-0.35-0.061-0.506,0.449-0.15,0.542
								c5.267,1.389,9.381,3.416,12.415,8.188c2.357,3.707,3.641,8.704,4.229,13.023c0.121,0.886,1.413,0.586,1.473-0.199
								C307.831,194.115,305.875,188.285,302.823,184.46z"/>
							<path style="fill:#9C6300;" d="M226.992,166.403c-6.063-1.992-12.24-0.248-17.426,3.343
								c-5.519,3.822-7.682,7.814-9.66,14.082c-0.251,0.797,1.001,1.354,1.371,0.578c2.141-4.495,3.65-8.417,7.636-11.685
								c4.738-3.884,11.685-7.289,17.895-5.654C227.239,167.179,227.41,166.54,226.992,166.403z"/>
						</g>
					</g>
				</g>
			</g>
			<g>
				<g>
					<path style="fill:#FFB273;" d="M202.953,405.831c-3.769-1.995-9.477-5.321-12.47-6.762
						c-12.913-6.217-34.921-15.953-38.531-3.235c-3.361,11.841,5.067,18.719,11.972,21.459c6.706,2.661,20.085,4.768,33.555,6.382
						C199.357,416.155,201.116,413.362,202.953,405.831z"/>
					<g>
						<path style="fill:#FFB273;" d="M165.557,412.966l-5.677-1.642c-6.521-1.887-10.312-8.766-8.425-15.286l30.467-105.298
							c1.887-6.521,8.766-10.312,15.286-8.425l5.677,1.643c6.521,1.887,10.312,8.766,8.425,15.286l-30.467,105.298
							C178.956,411.062,172.077,414.853,165.557,412.966z"/>
						<path style="fill:#4C122F;" d="M198.444,280.508c-12.869-1.507-22,10.96-24.806,16.327
							c-3.434,6.569-8.268,27.067-7.575,29.133c0.614,1.832,3.085,2.189,4.643,2.789c8.41,3.238,16.654,5.454,25.321,7.854
							c3.366,0.932,6.583,3.309,8.879,0.057c3.058-4.332,7.544-24.746,8.074-37.079C213.28,292.615,211.313,282.015,198.444,280.508
							z"/>
					</g>
					<g>
						<path style="fill:#FFB273;" d="M227.794,425.386c-0.616-3.913-3.571-6.882-6.996-9.203
							c-5.699-3.861-11.903-7.284-18.012-10.463c-0.109-0.056-11.01,12.716-9.958,15.802c0.046,0.133,0.173,0.172,0.281,0.138
							c0.049,0.483,0.072,0.968,0.056,1.453c-0.021,0.661-0.101,1.322-0.157,1.982c-0.082-0.017-0.174,0.032-0.176,0.134
							c-0.008,0.505,0.053,1.014,0.147,1.522c0.103,1.43,0.548,2.821,1.105,4.133c0.485,1.142,0.99,2.54,2.078,3.239
							c1.042,0.669,2.74,0.423,3.367-0.706c0.007-0.012,0.008-0.027,0.015-0.039c0.301,1.005,0.99,2.056,1.399,2.818
							c0.766,1.428,1.761,2.76,3.192,3.582c1.067,0.613,2.253,0.557,3.168-0.527c0.532-0.631,0.618-1.373,0.527-2.245
							c0.22,0.199,0.924,0.696,1.163,0.865c0.631,0.444,1.167,0.402,1.587,0.097c0.563-0.067,1.127-0.413,1.423-0.996
							c0.59-1.162,0.326-2.826-0.271-4.106c0.003-0.066,0.308-0.394,0.311-0.46c0.342-0.266,0.421-0.21,0.824-0.327
							c0.177,0.528,0.414,1.009,0.599,1.306c0.739,1.183,3.038,3.64,4.587,2.238c0.676-0.612,0.422-1.803,0.405-2.596
							c-0.03-1.443-0.25-2.904-0.588-4.308c0.139-0.103,0.28-0.206,0.437-0.305c0.788-0.495,2.13-0.327,2.745,0.442
							c-0.073,0.365-0.12,0.735-0.107,1.11c0.026,0.733,0.104,1.797,0.735,2.295c0.144,0.204,0.323,0.384,0.546,0.529
							c0.366,0.379,0.87,0.648,1.58,0.747c2.342,0.325,4.164-2.505,4.356-4.526C228.289,427.651,228.143,426.457,227.794,425.386z"
							/>
						<g>
							<path style="fill:#FF7142;" d="M226.018,428.271c0.188,0.29,0.325,0.51,0.664,0.627c0.239,0.082,0.537-0.188,0.436-0.436
								c-0.206-0.507-0.601-1.213-1.139-1.42c-0.551-0.211-1.005,0.102-1.204,0.618c-0.186,0.485-0.261,1.249-0.044,1.729
								c0.148,0.328,0.446,0.555,0.703,0.796c0.321,0.302,0.627,0.701,1.002,0.924c0.257,0.152,0.543-0.149,0.402-0.402
								c-0.235-0.422-0.488-0.757-0.828-1.098c-0.398-0.399-0.576-0.612-0.527-1.173c0.01-0.115,0.004-0.32,0.074-0.421
								C225.751,427.732,225.879,428.055,226.018,428.271z"/>
							<path style="fill:#FF7142;" d="M222.214,425.151c-0.82,1.082-1.64,3.037-1.138,4.401c0.039,0.105,0.212,0.161,0.269,0.035
								c0.301-0.673,0.393-1.422,0.61-2.125c0.22-0.713,0.596-1.375,0.788-2.089C222.832,425.036,222.402,424.903,222.214,425.151z"
								/>
							<path style="fill:#FF7142;" d="M196.169,417.504c-0.876,0.91-1.557,2.049-2.119,3.174c-0.457,0.914-1.148,1.833-1.118,2.889
								c0.007,0.236,0.348,0.289,0.414,0.056c0.609-2.138,2.479-3.792,3.267-5.86C196.71,417.508,196.344,417.323,196.169,417.504z"
								/>
							<g>
								<path style="fill:#FF7142;" d="M199.028,429.415c-0.469-1.444-0.909-3.016-1.671-4.328
									c-0.111-0.191-0.428-0.113-0.422,0.114c0.036,1.428,0.81,2.904,1.278,4.252c0.276,0.794,0.662,1.617,0.746,2.46
									c0.135,1.364-1.176,2.599-2.417,1.868c-0.304-0.179-0.581-0.459-0.875-0.661c-0.15-0.103-0.298,0.092-0.23,0.23
									c0.805,1.64,3.464,2.309,4.234,0.263C200.182,432.256,199.441,430.687,199.028,429.415z"/>
								<path style="fill:#FF7142;" d="M211.929,430.4c-0.664-3.185-1.347-6.339-2.087-9.496c-0.046-0.198-0.391-0.219-0.422,0
									c-0.34,2.381,0.808,5.045,1.281,7.396c0.33,1.637,0.764,3.266,0.94,4.927c0.076,0.718,0.368,2.141,0.012,2.839
									c-0.605,1.185-2.812,1.463-3.771,0.529c-0.008-0.008-0.021-0.006-0.03-0.013c-0.303-1.682-1.21-3.452-1.842-5.006
									c-1.227-3.016-1.928-6.075-2.997-9.112c-0.11-0.312-0.556-0.259-0.575,0.078c-0.177,3.059,1.625,6.609,2.754,9.387
									c0.463,1.139,0.948,2.275,1.318,3.449c0.43,1.363-0.174,3.189-0.174,3.189s-0.977,1.606-2.083,0.671
									c-0.428-0.338-0.899-0.597-1.414-0.778c-0.042-0.019-0.1,0.023-0.07,0.07c1.871,2.86,5.239,2.445,5.191-0.948
									c1.244,1.424,3.797,1.091,4.42-0.85C213.01,434.77,212.33,432.322,211.929,430.4z"/>
								<path style="fill:#FF7142;" d="M215.204,419.699c-0.586-1.377-2.172-1.736-3.542-1.264c-1.056,0.364-1.842,1.716-1.49,2.788
									c0.01,0.031,0.062,0.047,0.078,0.01c0.363-0.818,0.704-1.753,1.589-2.152c0.553-0.249,1.508-0.185,2.03,0.089
									c0.394,0.207,0.69,0.563,1.067,0.797C215.12,420.08,215.274,419.864,215.204,419.699z"/>
								<path style="fill:#FF7142;" d="M208.284,420.813c-0.192-0.191-0.26-0.511-0.47-0.692c-0.199-0.172-0.544-0.264-0.782-0.362
									c-0.551-0.227-1.065-0.239-1.663-0.13c-0.953,0.174-2.395,1.204-2.158,2.298c0.036,0.165,0.269,0.181,0.35,0.046
									c0.582-0.973,1.602-1.829,2.798-1.597c0.473,0.091,0.793,0.368,1.186,0.611c0.215,0.133,0.335,0.198,0.589,0.186
									C208.313,421.165,208.418,420.946,208.284,420.813z"/>
								<path style="fill:#FF7142;" d="M201.342,422.684c-0.35-0.421-0.608-0.654-1.168-0.781c-0.599-0.136-1.244,0.067-1.798,0.293
									c-0.573,0.234-1.402,1.26-1.147,1.948c0.043,0.116,0.157,0.166,0.27,0.11c0.01-0.004,0.019-0.009,0.027-0.016
									c0.409-0.516,0.501-1.102,1.194-1.371c0.602-0.233,1.235-0.375,1.807,0.013c0.261,0.177,0.34,0.352,0.696,0.255
									C201.432,423.077,201.468,422.835,201.342,422.684z"/>
								<path style="fill:#FF7142;" d="M196.282,424.169c-0.544-0.675-1.716-0.929-2.484-0.566
									c-0.752,0.355-1.565,1.613-0.743,2.298c0.025,0.021,0.054,0.016,0.074-0.01c0.23-0.306,0.123-0.695,0.306-1.031
									c0.234-0.428,0.665-0.731,1.16-0.717c0.524,0.014,1.055,0.697,1.562,0.504C196.368,424.565,196.423,424.344,196.282,424.169
									z"/>
							</g>
							<path style="fill:#FF7142;" d="M197.915,431.117c-0.087-0.206-0.236-0.291-0.46-0.261c-0.368,0.05-1.121,0.645-1.176,1.018
								c-0.01,0.07,0.008,0.127,0.068,0.168c0.31,0.208,0.663-0.126,0.993-0.33c0.072,0.242,0.121,0.521,0.055,0.699
								c-0.087,0.236-0.34,0.384-0.508,0.553c-0.146,0.146,0.008,0.348,0.186,0.32c0.235-0.038,0.405,0.012,0.612-0.138
								c0.17-0.124,0.343-0.346,0.418-0.541C198.27,432.171,198.088,431.528,197.915,431.117z"/>
							<path style="fill:#FF7142;" d="M205.908,436.578c-0.098-0.416-0.462-0.531-0.801-0.279c-0.245,0.183-0.434,0.457-0.654,0.669
								c-0.118,0.115-0.217,0.303-0.336,0.399c-0.072,0.057,0.02,0.163,0.095,0.123c0.009-0.005,0.298,0.024,0.399-0.013
								c0.24-0.086,0.434-0.279,0.642-0.431c0.04,0.22,0.07,0.446,0.092,0.644c0.05,0.444-0.247,0.595-0.53,0.875
								c-0.138,0.137,0.005,0.353,0.182,0.313c0.297-0.066,0.421-0.024,0.68-0.223c0.164-0.126,0.32-0.289,0.382-0.492
								C206.196,437.722,206.01,437.012,205.908,436.578z"/>
							<path style="fill:#FF7142;" d="M210.279,434.107c-0.103-0.097-0.269-0.128-0.394-0.051c-0.379,0.234-0.687,0.508-1.016,0.803
								c-0.076,0.068,0.005,0.185,0.095,0.163c0.304-0.074,0.602-0.178,0.897-0.285c0.019,0.198,0.004,0.497-0.004,0.593
								c-0.023,0.277-0.262,0.312-0.483,0.449c-0.197,0.122-0.117,0.435,0.118,0.437c0.49,0.005,1.003-0.062,1.074-0.652
								C210.615,435.159,210.594,434.403,210.279,434.107z"/>
							<path style="fill:#FF7142;" d="M215.149,433.073c0.458,0.222,1.227-0.318,1.621-0.532c-0.171-0.07-0.342-0.139-0.514-0.209
								c0.078,0.312,0.31,0.887,0.169,1.197c-0.056,0.124-0.293,0.31-0.394,0.366c-0.206,0.114-0.312,0.058-0.506-0.029
								c-0.182-0.081-0.366,0.015-0.382,0.219c-0.025,0.31,0.203,0.513,0.497,0.575c0.353,0.075,0.673-0.096,0.941-0.312
								c0.273-0.22,0.519-0.47,0.569-0.831c0.062-0.441-0.111-0.949-0.221-1.372c-0.057-0.223-0.32-0.316-0.514-0.209
								c-0.401,0.222-1.239,0.562-1.303,1.075C215.112,433.034,215.129,433.063,215.149,433.073L215.149,433.073z"/>
							<path style="fill:#FF7142;" d="M211.273,428.644c0.52,2.111,3.151,9.63,6.799,7.403c1.196-0.73,1.006-2.438,0.842-3.61
								c-0.362-2.59-1.158-5.462-2.221-7.851c-0.122-0.275-0.476-0.058-0.443,0.187c0.193,1.402,0.653,2.757,1.035,4.118
								c0.304,1.079,1.213,3.517,1.158,4.82c-0.045,1.052-0.831,2.051-2.09,1.734c-0.525-0.142-0.973-0.403-1.344-0.784
								c-0.593-0.501-0.963-1.132-1.32-1.809c-0.759-1.44-1.33-2.931-2.289-4.261C211.356,428.527,211.252,428.563,211.273,428.644
								L211.273,428.644z"/>
						</g>
					</g>
				</g>
				<g>
					<path style="fill:#FFB273;" d="M297.047,405.831c3.769-1.995,9.477-5.321,12.47-6.762c12.913-6.217,34.921-15.953,38.531-3.235
						c3.361,11.841-5.067,18.719-11.972,21.459c-6.706,2.661-20.085,4.768-33.555,6.382
						C300.643,416.155,298.884,413.362,297.047,405.831z"/>
					<g>
						<path style="fill:#FFB273;" d="M334.443,412.966l5.677-1.642c6.521-1.887,10.312-8.766,8.425-15.286L318.078,290.74
							c-1.887-6.521-8.766-10.312-15.286-8.425l-5.677,1.643c-6.521,1.887-10.312,8.766-8.425,15.286l30.467,105.298
							C321.044,411.062,327.923,414.853,334.443,412.966z"/>
						<path style="fill:#4C122F;" d="M287.02,299.589c0.529,12.333,5.016,32.747,8.074,37.079c2.295,3.252,5.513,0.875,8.879-0.057
							c8.667-2.4,16.911-4.615,25.321-7.854c1.559-0.6,4.029-0.957,4.643-2.789c0.693-2.066-4.141-22.564-7.575-29.133
							c-2.806-5.368-11.936-17.835-24.806-16.327C288.687,282.015,286.72,292.615,287.02,299.589z"/>
					</g>
					<g>
						<path style="fill:#FFB273;" d="M272.206,425.386c0.616-3.913,3.571-6.882,6.996-9.203c5.699-3.861,11.903-7.284,18.012-10.463
							c0.108-0.056,11.01,12.716,9.958,15.802c-0.046,0.133-0.172,0.172-0.28,0.138c-0.049,0.483-0.072,0.968-0.056,1.453
							c0.021,0.661,0.101,1.322,0.157,1.982c0.082-0.017,0.174,0.032,0.176,0.134c0.008,0.505-0.053,1.014-0.147,1.522
							c-0.103,1.43-0.548,2.821-1.105,4.133c-0.485,1.142-0.99,2.54-2.078,3.239c-1.042,0.669-2.741,0.423-3.367-0.706
							c-0.007-0.012-0.009-0.027-0.015-0.039c-0.301,1.005-0.99,2.056-1.399,2.818c-0.766,1.428-1.761,2.76-3.192,3.582
							c-1.067,0.613-2.253,0.557-3.168-0.527c-0.532-0.631-0.618-1.373-0.527-2.245c-0.22,0.199-0.924,0.696-1.163,0.865
							c-0.631,0.444-1.167,0.402-1.587,0.097c-0.563-0.067-1.127-0.413-1.423-0.996c-0.59-1.162-0.326-2.826,0.271-4.106
							c-0.003-0.066-0.308-0.394-0.311-0.46c-0.342-0.266-0.421-0.21-0.824-0.327c-0.177,0.528-0.414,1.009-0.599,1.306
							c-0.739,1.183-3.038,3.64-4.587,2.238c-0.676-0.612-0.422-1.803-0.405-2.596c0.03-1.443,0.25-2.904,0.588-4.308
							c-0.139-0.103-0.28-0.206-0.437-0.305c-0.787-0.495-2.13-0.327-2.745,0.442c0.073,0.365,0.12,0.735,0.107,1.11
							c-0.026,0.733-0.104,1.797-0.735,2.295c-0.144,0.204-0.323,0.384-0.546,0.529c-0.366,0.379-0.87,0.648-1.58,0.747
							c-2.342,0.325-4.164-2.505-4.356-4.526C271.71,427.651,271.857,426.457,272.206,425.386z"/>
						<g>
							<path style="fill:#FF7142;" d="M273.982,428.271c-0.188,0.29-0.325,0.51-0.664,0.627c-0.239,0.082-0.537-0.188-0.436-0.436
								c0.206-0.507,0.601-1.213,1.139-1.42c0.551-0.211,1.005,0.102,1.203,0.618c0.186,0.485,0.261,1.249,0.044,1.729
								c-0.148,0.328-0.445,0.555-0.702,0.796c-0.321,0.302-0.627,0.701-1.002,0.924c-0.257,0.152-0.543-0.149-0.402-0.402
								c0.235-0.422,0.488-0.757,0.828-1.098c0.398-0.399,0.576-0.612,0.527-1.173c-0.01-0.115-0.004-0.32-0.074-0.421
								C274.249,427.732,274.121,428.055,273.982,428.271z"/>
							<path style="fill:#FF7142;" d="M277.786,425.151c0.82,1.082,1.64,3.037,1.138,4.401c-0.039,0.105-0.212,0.161-0.268,0.035
								c-0.301-0.673-0.393-1.422-0.61-2.125c-0.22-0.713-0.596-1.375-0.787-2.089C277.167,425.036,277.598,424.903,277.786,425.151
								z"/>
							<path style="fill:#FF7142;" d="M303.831,417.504c0.876,0.91,1.557,2.049,2.119,3.174c0.457,0.914,1.148,1.833,1.118,2.889
								c-0.007,0.236-0.348,0.289-0.414,0.056c-0.609-2.138-2.479-3.792-3.267-5.86C303.29,417.508,303.656,417.323,303.831,417.504
								z"/>
							<g>
								<path style="fill:#FF7142;" d="M300.972,429.415c0.469-1.444,0.909-3.016,1.671-4.328c0.111-0.191,0.428-0.113,0.422,0.114
									c-0.036,1.428-0.81,2.904-1.278,4.252c-0.276,0.794-0.662,1.617-0.746,2.46c-0.135,1.364,1.176,2.599,2.417,1.868
									c0.304-0.179,0.581-0.459,0.875-0.661c0.15-0.103,0.297,0.092,0.23,0.23c-0.806,1.64-3.464,2.309-4.234,0.263
									C299.818,432.256,300.559,430.687,300.972,429.415z"/>
								<path style="fill:#FF7142;" d="M288.071,430.4c0.664-3.185,1.347-6.339,2.087-9.496c0.046-0.198,0.391-0.219,0.422,0
									c0.34,2.381-0.808,5.045-1.281,7.396c-0.33,1.637-0.764,3.266-0.94,4.927c-0.076,0.718-0.368,2.141-0.012,2.839
									c0.605,1.185,2.812,1.463,3.771,0.529c0.008-0.008,0.021-0.006,0.03-0.013c0.303-1.682,1.21-3.452,1.842-5.006
									c1.227-3.016,1.928-6.075,2.997-9.112c0.11-0.312,0.556-0.259,0.576,0.078c0.177,3.059-1.625,6.609-2.754,9.387
									c-0.463,1.139-0.948,2.275-1.318,3.449c-0.43,1.363,0.174,3.189,0.174,3.189s0.977,1.606,2.083,0.671
									c0.428-0.338,0.899-0.597,1.414-0.778c0.042-0.019,0.1,0.023,0.07,0.07c-1.871,2.86-5.239,2.445-5.191-0.948
									c-1.244,1.424-3.797,1.091-4.42-0.85C286.99,434.77,287.67,432.322,288.071,430.4z"/>
								<path style="fill:#FF7142;" d="M284.796,419.699c0.586-1.377,2.172-1.736,3.542-1.264c1.056,0.364,1.842,1.716,1.49,2.788
									c-0.01,0.031-0.062,0.047-0.078,0.01c-0.363-0.818-0.704-1.753-1.589-2.152c-0.553-0.249-1.508-0.185-2.03,0.089
									c-0.394,0.207-0.69,0.563-1.067,0.797C284.88,420.08,284.726,419.864,284.796,419.699z"/>
								<path style="fill:#FF7142;" d="M291.716,420.813c0.193-0.191,0.26-0.511,0.47-0.692c0.2-0.172,0.544-0.264,0.782-0.362
									c0.551-0.227,1.065-0.239,1.663-0.13c0.953,0.174,2.395,1.204,2.158,2.298c-0.036,0.165-0.269,0.181-0.35,0.046
									c-0.582-0.973-1.602-1.829-2.798-1.597c-0.473,0.091-0.793,0.368-1.186,0.611c-0.215,0.133-0.335,0.198-0.589,0.186
									C291.687,421.165,291.582,420.946,291.716,420.813z"/>
								<path style="fill:#FF7142;" d="M298.658,422.684c0.35-0.421,0.608-0.654,1.168-0.781c0.599-0.136,1.244,0.067,1.798,0.293
									c0.573,0.234,1.402,1.26,1.146,1.948c-0.043,0.116-0.157,0.166-0.27,0.11c-0.01-0.004-0.019-0.009-0.027-0.016
									c-0.409-0.516-0.501-1.102-1.194-1.371c-0.602-0.233-1.234-0.375-1.807,0.013c-0.261,0.177-0.34,0.352-0.695,0.255
									C298.568,423.077,298.532,422.835,298.658,422.684z"/>
								<path style="fill:#FF7142;" d="M303.718,424.169c0.543-0.675,1.716-0.929,2.484-0.566c0.752,0.355,1.565,1.613,0.743,2.298
									c-0.025,0.021-0.054,0.016-0.074-0.01c-0.23-0.306-0.123-0.695-0.306-1.031c-0.234-0.428-0.665-0.731-1.16-0.717
									c-0.524,0.014-1.055,0.697-1.562,0.504C303.632,424.565,303.577,424.344,303.718,424.169z"/>
							</g>
							<path style="fill:#FF7142;" d="M302.085,431.117c0.087-0.206,0.235-0.291,0.459-0.261c0.368,0.05,1.121,0.645,1.176,1.018
								c0.01,0.07-0.008,0.127-0.068,0.168c-0.31,0.208-0.663-0.126-0.993-0.33c-0.072,0.242-0.121,0.521-0.055,0.699
								c0.087,0.236,0.34,0.384,0.508,0.553c0.146,0.146-0.008,0.348-0.186,0.32c-0.235-0.038-0.405,0.012-0.612-0.138
								c-0.17-0.124-0.343-0.346-0.418-0.541C301.73,432.171,301.912,431.528,302.085,431.117z"/>
							<path style="fill:#FF7142;" d="M294.092,436.578c0.098-0.416,0.462-0.531,0.801-0.279c0.245,0.183,0.434,0.457,0.654,0.669
								c0.118,0.115,0.217,0.303,0.336,0.399c0.072,0.057-0.02,0.163-0.095,0.123c-0.009-0.005-0.298,0.024-0.399-0.013
								c-0.24-0.086-0.435-0.279-0.642-0.431c-0.04,0.22-0.07,0.446-0.092,0.644c-0.05,0.444,0.247,0.595,0.53,0.875
								c0.138,0.137-0.005,0.353-0.182,0.313c-0.297-0.066-0.421-0.024-0.68-0.223c-0.164-0.126-0.32-0.289-0.382-0.492
								C293.804,437.722,293.99,437.012,294.092,436.578z"/>
							<path style="fill:#FF7142;" d="M289.721,434.107c0.103-0.097,0.269-0.128,0.394-0.051c0.379,0.234,0.687,0.508,1.016,0.803
								c0.076,0.068-0.005,0.185-0.095,0.163c-0.304-0.074-0.602-0.178-0.897-0.285c-0.019,0.198-0.004,0.497,0.004,0.593
								c0.023,0.277,0.262,0.312,0.483,0.449c0.197,0.122,0.117,0.435-0.118,0.437c-0.49,0.005-1.003-0.062-1.074-0.652
								C289.385,435.159,289.406,434.403,289.721,434.107z"/>
							<path style="fill:#FF7142;" d="M284.851,433.073c-0.458,0.222-1.228-0.318-1.621-0.532c0.171-0.07,0.342-0.139,0.514-0.209
								c-0.078,0.312-0.31,0.887-0.169,1.197c0.056,0.124,0.293,0.31,0.394,0.366c0.206,0.114,0.312,0.058,0.506-0.029
								c0.182-0.081,0.366,0.015,0.382,0.219c0.025,0.31-0.203,0.513-0.497,0.575c-0.353,0.075-0.673-0.096-0.941-0.312
								c-0.273-0.22-0.519-0.47-0.569-0.831c-0.062-0.441,0.111-0.949,0.221-1.372c0.057-0.223,0.32-0.316,0.514-0.209
								c0.401,0.222,1.239,0.562,1.303,1.075C284.888,433.034,284.871,433.063,284.851,433.073L284.851,433.073z"/>
							<path style="fill:#FF7142;" d="M288.727,428.644c-0.521,2.111-3.151,9.63-6.799,7.403c-1.196-0.73-1.006-2.438-0.842-3.61
								c0.362-2.59,1.158-5.462,2.221-7.851c0.122-0.275,0.476-0.058,0.443,0.187c-0.194,1.402-0.653,2.757-1.035,4.118
								c-0.304,1.079-1.213,3.517-1.158,4.82c0.045,1.052,0.831,2.051,2.09,1.734c0.525-0.142,0.973-0.403,1.344-0.784
								c0.593-0.501,0.963-1.132,1.32-1.809c0.759-1.44,1.33-2.931,2.289-4.261C288.644,428.527,288.747,428.563,288.727,428.644
								L288.727,428.644z"/>
						</g>
					</g>
				</g>
			</g>
		</g>
		<g>
			<rect x="229.537" y="413.713" style="fill:#539FB0;" width="40.926" height="29.013"/>
			<path style="fill:#71D2E6;" d="M282.755,449.56h-65.51c-2.119,0-3.837-1.718-3.837-3.838l0,0c0-2.119,1.718-3.837,3.837-3.837
				h65.51c2.119,0,3.838,1.718,3.838,3.837l0,0C286.593,447.842,284.875,449.56,282.755,449.56z"/>
			<path style="fill:#71D2E6;" d="M352.189,271.314h-30.154h-144.07h-30.154c-6.157,0-11.194,5.037-11.194,11.194v125.577
				c0,6.157,5.037,11.194,11.194,11.194h30.684h143.011h30.684c6.157,0,11.194-5.037,11.194-11.194V282.508
				C363.384,276.352,358.346,271.314,352.189,271.314z"/>
			<path style="fill:#539FB0;" d="M289.572,361.936h-79.145c-3.122,0-5.653-2.531-5.653-5.653l0,0c0-3.122,2.531-5.653,5.653-5.653
				h79.145c3.122,0,5.653,2.531,5.653,5.653l0,0C295.226,359.405,292.695,361.936,289.572,361.936z"/>
		</g>
	</g>
	<g>
		<g>
			<path style="fill:#71D2E6;" d="M419.786,406.092c-1.829-1.032-4.544,0.348-6.017,1.645c-0.016-3.926-0.132-7.854-0.416-11.77
				c-0.247-3.407-0.118-7.112-1.798-10.152c-0.022-0.04-0.076-0.017-0.087,0.018c-1.032,3.266-0.302,6.886-0.174,10.28
				c0.001,0.026,0.001,0.053,0.002,0.079c-0.79-1.255-2.091-2.224-3.311-3.003c-1.388-0.887-4.108-2.517-5.221-0.321
				c-0.921,1.816,0.945,3.768,2.272,4.754c1.771,1.316,4.132,2.125,6.359,1.88c0.082,2.849,0.141,5.698,0.125,8.548
				c-0.003,0.577-0.02,1.153-0.032,1.73c-1.771-1.484-5.018-3.055-7.041-1.776c-1.458,0.922-1.179,2.817,0.18,3.713
				c1.637,1.079,4.872,0.899,6.803,0.168c-0.248,6.674-0.952,13.305-1.178,19.978c-0.04,1.181,1.836,1.255,2.047,0.131
				c1.23-6.57,1.449-13.564,1.472-20.339c2.178-0.128,4.538-0.721,6.021-2.066C420.838,408.638,421.211,406.896,419.786,406.092z"/>
			<path style="fill:#FFB603;" d="M425.761,372.928c-1.969-4.344-6.079-3.4-9.646-1.057c0.06-0.837,0.013-1.671-0.176-2.485
				c-0.692-2.975-2.684-6.768-6.007-7.294c-3.078-0.487-4.925,1.662-5.019,4.558c-0.074,2.26,0.393,4.608,1.305,6.668
				c0.17,0.384,0.359,0.725,0.558,1.049c-4.249-3.002-10.442-5.409-11.092,0.188c-0.552,4.754,4.015,6.67,8.484,6.887
				c-2.063,1.442-3.871,3.184-4.964,5.533c-1.069,2.297-1.781,5.896,1.142,7.092c4.87,1.993,9.146-2.747,10.972-7.651
				c0.618,1.179,1.451,2.233,2.482,3.115c0.042,0.053,0.077,0.108,0.12,0.16c1.955,2.418,5.961,4.22,8.42,1.362
				c2.19-2.546,2.024-6.651-0.232-9.04c-0.76-0.805-1.735-1.506-2.808-2.111C423.816,379.474,427.929,377.711,425.761,372.928z"/>
			<path style="fill:#FF771C;" d="M415.085,375.707c-0.934-1.025-2.29-1.702-3.7-1.609c-0.995,0.066-1.922,0.507-2.396,1.28
				c-1.78,0.937-2.505,3.56-1.771,5.481c1.085,2.839,4.381,3.877,6.943,2.274C416.796,381.486,417.144,377.968,415.085,375.707z"/>
		</g>
		<g>
			<path style="fill:#2B406A;" d="M395.585,449.56h29.996c2.578,0,4.668-2.09,4.668-4.668v-17.296c0-2.578-2.09-4.668-4.668-4.668
				h-29.995c-2.578,0-4.669,2.09-4.669,4.669v17.296C390.917,447.47,393.007,449.56,395.585,449.56z"/>
			<path style="fill:#6D007D;" d="M390.471,426.439h40.225c2.325,0,4.21-2.439,4.21-5.447l0,0c0-3.008-1.885-5.447-4.21-5.447
				h-40.225c-2.325,0-4.21,2.439-4.21,5.447l0,0C386.261,424,388.146,426.439,390.471,426.439z"/>
			
				<rect x="390.928" y="433.865" transform="matrix(-1 -1.224647e-16 1.224647e-16 -1 821.1656 876.3836)" style="fill:#C067C9;" width="39.31" height="8.654"/>
		</g>
	</g>
</g>
<g id="DESIGNED_BY_FREEPIK">
	<g>
		<g id="XMLID_319_">
			<g id="XMLID_338_">
				<path id="XMLID_346_" style="fill:#1D262D;" d="M260.104,465.465c-0.432,0.443-0.803,0.931-1.108,1.453l-0.465-0.241
					c-0.067-0.298-0.349-0.503-0.659-0.466c-0.331,0.039-0.568,0.339-0.529,0.67c0.039,0.331,0.339,0.568,0.67,0.529
					c0.066-0.008,0.127-0.026,0.184-0.052l0.451,0.234c-0.251,0.554-0.433,1.139-0.539,1.744l0.747,0.132
					c0.23-1.306,0.85-2.507,1.792-3.473L260.104,465.465z"/>
				<path id="XMLID_345_" style="fill:#1D262D;" d="M265.592,463.163c-0.171,0-0.341,0.006-0.51,0.017l-0.074-0.626
					c0.188-0.149,0.296-0.389,0.266-0.645c-0.046-0.393-0.402-0.674-0.795-0.628c-0.393,0.046-0.674,0.402-0.628,0.795
					c0.03,0.254,0.189,0.461,0.404,0.564l0.074,0.624c-0.714,0.116-1.403,0.332-2.06,0.646l0.327,0.684
					c0.934-0.447,1.942-0.673,2.995-0.673c0.496,0,0.993,0.053,1.475,0.158l0.161-0.741
					C266.692,463.222,266.142,463.163,265.592,463.163z"/>
				<path id="XMLID_344_" style="fill:#1D262D;" d="M272.194,465.711c0.331-0.04,0.566-0.341,0.526-0.672
					c-0.04-0.331-0.341-0.566-0.672-0.526c-0.309,0.038-0.535,0.304-0.53,0.609l-0.416,0.363c-0.418-0.43-0.889-0.813-1.408-1.139
					l-0.404,0.641c1.134,0.715,2.021,1.726,2.563,2.925l0.69-0.313c-0.251-0.554-0.567-1.072-0.942-1.545l0.402-0.351
					C272.065,465.716,272.129,465.719,272.194,465.711z"/>
				<path id="XMLID_343_" style="fill:#1D262D;" d="M265.044,473.372c-0.386,0.023-0.775,0.035-1.157,0.035
					c-0.88,0-1.733-0.061-2.478-0.179c-0.39-0.062-0.846-0.155-1.27-0.292c1.046,1.861,3.069,3.125,5.388,3.125
					c2.855,0,5.262-1.916,5.95-4.504c-0.682,0.449-1.505,0.825-2.459,1.123C267.839,473.047,266.463,473.286,265.044,473.372z"/>
				<path id="XMLID_339_" style="fill:#1D262D;" d="M265.592,464.68c-3.352,0-6.08,2.666-6.08,5.943
					c0,0.426,0.046,0.849,0.137,1.261c0.673,0.483,2.706,0.89,5.348,0.731c2.879-0.173,5.297-0.957,6.672-2.159
					c-0.006-0.195-0.021-0.39-0.045-0.582C271.244,466.913,268.65,464.68,265.592,464.68z M263.432,471.194
					c-1.02,0-1.85-0.83-1.85-1.85c0-1.02,0.83-1.85,1.85-1.85c1.02,0,1.85,0.83,1.85,1.85
					C265.282,470.365,264.452,471.194,263.432,471.194z M268.17,470.286c-0.75,0-1.36-0.61-1.36-1.36s0.61-1.361,1.36-1.361
					c0.75,0,1.361,0.61,1.361,1.361S268.92,470.286,268.17,470.286z"/>
			</g>
			<path id="XMLID_336_" style="fill:#1D262D;" d="M281.595,466.547c-0.295-0.116-0.805-0.309-1.382-0.237
				c-0.551,0.069-0.844,0.341-0.844,1.007v0.866h2.228v1.717h-2.228v5.455h-1.932v-5.455h-1.34v-1.717h1.34v-0.888
				c0-1.68,0.896-2.783,2.568-2.783c0.643,0,1.157,0.122,1.59,0.308L281.595,466.547z"/>
			<path id="XMLID_334_" style="fill:#1D262D;" d="M286.298,469.879c-0.177-0.03-0.358-0.046-0.526-0.046
				c-0.896,0-1.51,0.548-1.51,1.614v3.908h-1.932v-7.172h1.873v0.785c0.451-0.673,1.14-0.977,2.021-0.977
				c0.414,0,0.848,0.128,1.094,0.337L286.298,469.879z"/>
			<path id="XMLID_331_" style="fill:#1D262D;" d="M293.965,471.757c0,0.222-0.015,0.489-0.037,0.651h-5.085
				c0.207,1.036,0.933,1.488,1.843,1.488c0.622,0,1.295-0.252,1.813-0.688l1.133,1.243c-0.814,0.748-1.85,1.088-3.057,1.088
				c-2.198,0-3.723-1.495-3.723-3.753c0-2.258,1.48-3.797,3.627-3.797C292.544,467.99,293.958,469.522,293.965,471.757z
				 M288.851,471.091h3.175c-0.177-0.918-0.733-1.436-1.562-1.436C289.554,469.655,289.021,470.203,288.851,471.091z"/>
			<path id="XMLID_328_" style="fill:#1D262D;" d="M301.618,471.757c0,0.222-0.015,0.489-0.037,0.651h-5.085
				c0.207,1.036,0.932,1.488,1.843,1.488c0.622,0,1.295-0.252,1.814-0.688l1.132,1.243c-0.814,0.748-1.85,1.088-3.057,1.088
				c-2.198,0-3.723-1.495-3.723-3.753c0-2.258,1.48-3.797,3.627-3.797C300.197,467.99,301.611,469.522,301.618,471.757z
				 M296.504,471.091h3.175c-0.178-0.918-0.733-1.436-1.562-1.436C297.207,469.655,296.674,470.203,296.504,471.091z"/>
			<path id="XMLID_325_" style="fill:#1D262D;" d="M309.964,471.764c0,2.154-1.495,3.775-3.471,3.775
				c-0.962,0-1.643-0.378-2.109-0.933v3.708h-1.924v-10.133h1.887v0.792c0.466-0.585,1.155-0.984,2.139-0.984
				C308.469,467.99,309.964,469.61,309.964,471.764z M304.287,471.764c0,1.132,0.747,1.976,1.843,1.976
				c1.14,0,1.85-0.881,1.85-1.976c0-1.095-0.71-1.976-1.85-1.976C305.035,469.788,304.287,470.632,304.287,471.764z"/>
			<path id="XMLID_322_" style="fill:#1D262D;" d="M313.068,465.836c0,0.696-0.54,1.229-1.236,1.229
				c-0.696,0-1.229-0.533-1.229-1.229c0-0.696,0.533-1.243,1.229-1.243C312.527,464.592,313.068,465.14,313.068,465.836z
				 M312.809,475.354h-1.932v-7.172h1.932V475.354z"/>
			<path id="XMLID_320_" style="fill:#1D262D;" d="M316.032,470.736l2.701-2.554h2.368l-3.479,3.375l3.501,3.797h-2.376
				l-2.716-2.901v2.901H314.1v-10.658h1.932V470.736z"/>
		</g>
		<g>
			<path style="fill:#1D262D;" d="M184.412,475.289v-1.055c-0.527,0.718-1.391,1.23-2.388,1.23c-1.846,0-3.149-1.406-3.149-3.706
				c0-2.256,1.289-3.721,3.149-3.721c0.952,0,1.816,0.469,2.388,1.245v-3.765h1.099v9.77H184.412z M184.412,473.37v-3.208
				c-0.395-0.615-1.245-1.143-2.124-1.143c-1.421,0-2.27,1.172-2.27,2.739c0,1.567,0.85,2.724,2.27,2.724
				C183.168,474.483,184.017,473.986,184.412,473.37z"/>
			<path style="fill:#1D262D;" d="M186.932,471.744c0-2.051,1.465-3.706,3.486-3.706c2.139,0,3.398,1.67,3.398,3.794v0.279h-5.727
				c0.088,1.333,1.025,2.446,2.549,2.446c0.805,0,1.626-0.322,2.182-0.894l0.527,0.718c-0.703,0.703-1.655,1.084-2.812,1.084
				C188.44,475.465,186.932,473.956,186.932,471.744z M190.403,468.947c-1.509,0-2.256,1.274-2.314,2.358h4.643
				C192.718,470.25,192.015,468.947,190.403,468.947z"/>
			<path style="fill:#1D262D;" d="M194.607,474.351l0.571-0.791c0.469,0.542,1.362,1.011,2.329,1.011c1.084,0,1.67-0.513,1.67-1.216
				c0-1.714-4.38-0.659-4.38-3.281c0-1.098,0.952-2.036,2.636-2.036c1.201,0,2.051,0.454,2.622,1.026l-0.513,0.762
				c-0.424-0.513-1.201-0.894-2.109-0.894c-0.967,0-1.567,0.483-1.567,1.113c0,1.552,4.38,0.527,4.38,3.281
				c0,1.187-0.952,2.138-2.783,2.138C196.306,475.465,195.325,475.113,194.607,474.351z"/>
			<path style="fill:#1D262D;" d="M201.477,466.471c0-0.41,0.337-0.747,0.732-0.747c0.41,0,0.747,0.337,0.747,0.747
				c0,0.41-0.337,0.732-0.747,0.732C201.814,467.203,201.477,466.881,201.477,466.471z M201.667,475.289v-7.075h1.099v7.075H201.667
				z"/>
			<path style="fill:#1D262D;" d="M204.582,477.105l0.556-0.82c0.586,0.703,1.289,0.967,2.3,0.967c1.172,0,2.27-0.571,2.27-2.124
				v-1.011c-0.513,0.718-1.377,1.26-2.373,1.26c-1.845,0-3.149-1.377-3.149-3.662c0-2.27,1.289-3.677,3.149-3.677
				c0.952,0,1.802,0.469,2.373,1.245v-1.069h1.098v6.87c0,2.344-1.641,3.076-3.369,3.076
				C206.237,478.16,205.417,477.926,204.582,477.105z M209.709,473.253v-3.091c-0.381-0.615-1.23-1.143-2.109-1.143
				c-1.421,0-2.27,1.128-2.27,2.695c0,1.553,0.849,2.695,2.27,2.695C208.478,474.41,209.328,473.868,209.709,473.253z"/>
			<path style="fill:#1D262D;" d="M217.413,475.289v-4.629c0-1.245-0.63-1.641-1.582-1.641c-0.865,0-1.685,0.527-2.095,1.099v5.17
				h-1.099v-7.075h1.099v1.025c0.498-0.586,1.465-1.201,2.519-1.201c1.48,0,2.256,0.747,2.256,2.285v4.966H217.413z"/>
			<path style="fill:#1D262D;" d="M219.932,471.744c0-2.051,1.465-3.706,3.486-3.706c2.139,0,3.398,1.67,3.398,3.794v0.279h-5.727
				c0.088,1.333,1.025,2.446,2.549,2.446c0.806,0,1.626-0.322,2.183-0.894l0.527,0.718c-0.703,0.703-1.655,1.084-2.812,1.084
				C221.441,475.465,219.932,473.956,219.932,471.744z M223.404,468.947c-1.509,0-2.256,1.274-2.314,2.358h4.643
				C225.718,470.25,225.015,468.947,223.404,468.947z"/>
			<path style="fill:#1D262D;" d="M233.35,475.289v-1.055c-0.527,0.718-1.392,1.23-2.388,1.23c-1.846,0-3.149-1.406-3.149-3.706
				c0-2.256,1.289-3.721,3.149-3.721c0.952,0,1.817,0.469,2.388,1.245v-3.765h1.098v9.77H233.35z M233.35,473.37v-3.208
				c-0.396-0.615-1.245-1.143-2.124-1.143c-1.421,0-2.27,1.172-2.27,2.739c0,1.567,0.849,2.724,2.27,2.724
				C232.105,474.483,232.954,473.986,233.35,473.37z"/>
			<path style="fill:#1D262D;" d="M239.692,475.289v-9.77h1.098v3.765c0.572-0.776,1.421-1.245,2.388-1.245
				c1.845,0,3.149,1.465,3.149,3.721c0,2.299-1.304,3.706-3.149,3.706c-0.996,0-1.86-0.513-2.388-1.23v1.055H239.692z
				 M242.9,474.483c1.436,0,2.285-1.157,2.285-2.724c0-1.568-0.85-2.739-2.285-2.739c-0.864,0-1.728,0.527-2.109,1.143v3.208
				C241.171,473.986,242.036,474.483,242.9,474.483z"/>
			<path style="fill:#1D262D;" d="M247.528,477.061c0.161,0.073,0.425,0.117,0.601,0.117c0.483,0,0.805-0.161,1.055-0.747
				l0.469-1.069l-2.959-7.148h1.187l2.358,5.8l2.344-5.8h1.201l-3.545,8.51c-0.425,1.025-1.143,1.421-2.08,1.435
				c-0.234,0-0.601-0.044-0.805-0.103L247.528,477.061z"/>
		</g>
	</g>
</g>
</svg>
